<?xml version="1.0" standalone="no"?><!DOCTYPE svg PUBLIC "-//W3C//DTD SVG 1.1//EN" "http://www.w3.org/Graphics/SVG/1.1/DTD/svg11.dtd"><svg t="1624692834854" class="icon" viewBox="0 0 1024 1024" version="1.1" xmlns="http://www.w3.org/2000/svg" p-id="8388" xmlns:xlink="http://www.w3.org/1999/xlink" width="128" height="128"><defs><style type="text/css"></style></defs><path d="M786.53 507.49a99.68 99.68 0 1 0 99.68 99.68 99.68 99.68 0 0 0-99.68-99.68z m0 160.65a61 61 0 1 1 61-61 61 61 0 0 1-61 61z" fill="#FFC7C7" p-id="8389"></path><path d="M786.53 507.49a99.68 99.68 0 1 1-99.68 99.68 99.68 99.68 0 0 1 99.68-99.68m0 160.65a61 61 0 1 0-61-61 61 61 0 0 0 61 61m0-200.65a139.37 139.37 0 1 0 54.38 11 138.84 138.84 0 0 0-54.38-11z m0 160.65a21 21 0 1 1 21-21 21 21 0 0 1-21 21z" fill="#3A2B2B" p-id="8390"></path><path d="M137.79 607.17a99.68 99.68 0 1 0 99.68-99.68 99.68 99.68 0 0 0-99.68 99.68z m38.71 0a61 61 0 1 1 61 61 61 61 0 0 1-61-61z" fill="#FFC7C7" p-id="8391"></path><path d="M237.47 507.49a99.68 99.68 0 1 1-99.68 99.68 99.68 99.68 0 0 1 99.68-99.68m0 160.65a61 61 0 1 0-61-61 61 61 0 0 0 61 61m0-200.65a139.37 139.37 0 1 0 54.38 11 138.84 138.84 0 0 0-54.38-11z m0 160.65a21 21 0 1 1 21-21 21 21 0 0 1-21 21z" fill="#3A2B2B" p-id="8392"></path><path d="M570.29 472.76L542.89 451c-2.95-2.34-4-6.2-2.4-8.62L727.6 166.1c6.86-10.13 17.78-14.65 24-9.69l58.12 46.12c6.25 5 4.33 16.62-4 25.6l-226.54 245c-1.93 2.16-5.94 1.97-8.89-0.37z" fill="#FFEEEE" p-id="8393"></path><path d="M575.38 494.6a28.23 28.23 0 0 1-17.52-6.17l-27.4-21.74c-11.15-8.85-14-24.44-6.52-35.5L711 154.89c7.48-11.05 18.23-18.38 29.49-20.11a30.06 30.06 0 0 1 23.53 6l58.12 46.12a30 30 0 0 1 11.16 21.55c0.88 11.36-3.82 23.49-12.88 33.29l-226.54 245a25 25 0 0 1-18.5 7.86z m7.33-37.52z m-18.21-14.44l9.06 7.18 217.52-235.27c0.24-0.26 0.46-0.52 0.67-0.77l-47-37.28c-0.2 0.25-0.4 0.53-0.6 0.82z" fill="#3A2B2B" p-id="8394"></path><path d="M264.12 332.75h495.76a26.54 26.54 0 0 1 26.54 26.54v338.06a184.23 184.23 0 0 1-184.23 184.23H421.81a184.23 184.23 0 0 1-184.22-184.23V359.29a26.54 26.54 0 0 1 26.53-26.54z" fill="#CC6666" p-id="8395"></path><path d="M746.41 372.75v324.6a144.23 144.23 0 0 1-144.22 144.23H421.81a144.23 144.23 0 0 1-144.22-144.23v-324.6h468.82m13.46-40H264.12a26.54 26.54 0 0 0-26.54 26.54v338.06a184.23 184.23 0 0 0 184.23 184.23h180.38a184.23 184.23 0 0 0 184.22-184.23V359.29a26.54 26.54 0 0 0-26.54-26.54z" fill="#3A2B2B" p-id="8396"></path><path d="M194.56 332.75l634.88 0 0 111.06-634.88 0 0-111.06Z" fill="#FFEEEE" p-id="8397"></path><path d="M801 463.81H223a48.5 48.5 0 0 1-48.44-48.44v-54.18A48.5 48.5 0 0 1 223 312.75h578a48.5 48.5 0 0 1 48.44 48.44v54.17A48.5 48.5 0 0 1 801 463.81zM223 352.75a8.56 8.56 0 0 0-8.44 8.44v54.17a8.56 8.56 0 0 0 8.44 8.44h578a8.56 8.56 0 0 0 8.44-8.44v-54.17a8.56 8.56 0 0 0-8.44-8.44zM556 528.35c-10.49-2.1-19.7-0.92-27 2.84-2.68-8.08-8.37-15.75-17.06-22.07v0.35c-8.66 6.24-14.31 13.81-17 21.79-7.21-3.7-16.27-4.85-26.56-2.77l-0.13-0.14v0.17h-0.17l0.14 0.15c-5.6 31.65 14.19 61.12 43.73 55.14 30 6 49.67-23.84 43.87-55.28z" fill="#3A2B2B" p-id="8398"></path><path d="M504.39 585.11a33.67 33.67 0 0 1-23.89-9.81c-11-10.76-16-28.54-12.87-46.43l-0.59-0.63 0.73-0.15 0.11-0.65 0.64 0.5c9.72-1.92 18.73-1 26.12 2.61 2.83-8 8.61-15.41 16.76-21.34v-1.08l0.79 0.58c8.29 6 14.18 13.55 17.05 21.77 7.56-3.72 16.83-4.62 26.82-2.62l0.89 0.18-0.65 0.68c3.21 17.8-1.61 35.56-12.6 46.39-8.46 8.34-19.76 11.62-31.81 9.24a38.18 38.18 0 0 1-7.5 0.76z m-35.76-56.16c-3.07 17.61 1.74 35.08 12.56 45.63 8.2 8 19.06 11.11 30.6 8.77h0.2c11.75 2.35 22.76-0.83 31-9 10.8-10.64 15.5-28.13 12.29-45.67-9.78-1.85-18.8-0.85-26.11 2.9l-0.52 0.27-0.18-0.55c-2.68-8.05-8.32-15.45-16.34-21.43-8.25 6-14 13.39-16.74 21.5l-0.18 0.55-0.52-0.27c-7.3-3.65-16.3-4.65-26.06-2.7z" fill="#3A2B2B" p-id="8399"></path><path d="M547.21 564.48c-19.73 0-35.2 16.41-35.2 16.41s-14.6-16.41-35.21-16.41c-20 0-36.42 16.54-37.49 36.56-0.6 11.31 3 19.92 8.18 27.72 10.27 15.58 55.15 53.08 64.59 53.08 9.64 0 54.12-37.36 64.45-53.08 5.15-7.83 8.78-16.4 8.18-27.72-1.07-20-17.44-36.56-37.49-36.56" fill="#FFC7C7" p-id="8400"></path><path d="M512.07 701.83c-5 0-14.17 0-44.73-25.29-6.35-5.25-27.76-23.44-36.55-36.78-5.39-8.18-12.44-21.21-11.45-39.79 1.67-31.12 26.91-55.49 57.46-55.49 14.55 0 26.68 5.31 35.39 10.87 8.77-5.52 20.91-10.87 35-10.87 30.56 0 55.8 24.37 57.46 55.49 1 18.54-6.05 31.58-11.44 39.77-8.86 13.47-30.12 31.6-36.42 36.83-30.4 25.26-39.72 25.26-44.72 25.26z m4.25-39.36z m-8.41 0z m-31.12-78c-9.14 0-17 7.91-17.52 17.63-0.29 5.45 1.08 9.84 4.91 15.64 6.71 10.18 35.06 34.4 47.92 42.44 12.76-8 41-32.17 47.71-42.43 3.83-5.82 5.21-10.21 4.92-15.66-0.52-9.72-8.38-17.63-17.52-17.63-8.75 0-17.84 7.28-20.7 10.18a19.43 19.43 0 0 1-29.39-0.41c-2.65-2.78-11.2-9.75-20.33-9.75z" fill="#3A2B2B" p-id="8401"></path></svg>